<?xml version="1.0" encoding="UTF-8" standalone="no"?>
<svg
   viewBox="0 0 100 70"
   version="1.1"
   id="svg18"
   sodipodi:docname="logo.svg"
   inkscape:version="1.1 (c68e22c387, 2021-05-23)"
   width="100"
   height="70"
   xmlns:inkscape="http://www.inkscape.org/namespaces/inkscape"
   xmlns:sodipodi="http://sodipodi.sourceforge.net/DTD/sodipodi-0.dtd"
   xmlns:xlink="http://www.w3.org/1999/xlink"
   xmlns="http://www.w3.org/2000/svg"
   xmlns:svg="http://www.w3.org/2000/svg">
  <sodipodi:namedview
     id="namedview20"
     pagecolor="#000000"
     bordercolor="#666666"
     borderopacity="1.0"
     inkscape:pageshadow="2"
     inkscape:pageopacity="0"
     inkscape:pagecheckerboard="0"
     showgrid="false"
     inkscape:zoom="3.8738706"
     inkscape:cx="-27.491883"
     inkscape:cy="36.268635"
     inkscape:window-width="1920"
     inkscape:window-height="1009"
     inkscape:window-x="-8"
     inkscape:window-y="-8"
     inkscape:window-maximized="1"
     inkscape:current-layer="svg18" />
  <defs
     id="defs4">
    <linearGradient
       inkscape:collect="always"
       id="linearGradient935">
      <stop
         style="stop-color:#00bdff;stop-opacity:1;"
         offset="0"
         id="stop931" />
      <stop
         style="stop-color:#2584ff;stop-opacity:1"
         offset="1"
         id="stop933" />
    </linearGradient>
    <style
       id="style2">.cls-1{isolation:isolate;}.cls-2{mix-blend-mode:color-burn;}.cls-3,.cls-4{fill:#00bdff;}.cls-4{font-size:43.51px;font-family:BebasNeue-Regular, Bebas Neue;}</style>
    <linearGradient
       inkscape:collect="always"
       xlink:href="#linearGradient935"
       id="linearGradient937"
       x1="3.7430384"
       y1="35.881424"
       x2="96.027985"
       y2="35.881424"
       gradientUnits="userSpaceOnUse" />
  </defs>
  <path
     class="cls-3"
     d="M 75.784909,24.555304 A 8.6659205,8.6659205 0 0 0 63.173446,15.865595 C 62.616109,9.8912074 57.236441,4.8615752 50.076012,5.8641032 48.291852,6.1155848 45.722661,7.3526025 44.441464,8.6202058 A 11.863815,11.863815 0 0 0 41.005682,15.325249 15.945294,15.945294 0 0 0 15.820138,29.506773 C 1.4686939,27.420156 -2.5142311,49.509757 16.907626,49.509757 h 24.808321 v -8.601351 h -8.15616 l 16.359899,-21.51867 16.393882,21.51867 h -8.169754 v 8.601351 h 23.720833 c 22.844043,0 16.971611,-28.886402 -6.079738,-24.954453 z"
     id="path10"
     style="isolation:isolate;stroke-width:0.33984;fill-opacity:1;fill:url(#linearGradient937)" />
  <g
     aria-label="HAPPY HOSTS"
     id="text12"
     style="font-size:96px;font-family:BebasNeue-Regular, 'Bebas Neue';-inkscape-font-specification:'BebasNeue-Regular, Bebas Neue, Normal';isolation:isolate;fill:#ffffff;stroke-width:0.0107384"
     class="cls-4"
     transform="matrix(0.17837464,0,0,0.17837464,10.785742,54.201367)">
    <path
       d="m 27.506574,-2.1915314 h 10.56 V 25.168469 h 11.328 V -2.1915314 h 10.56 V 65.008469 h -10.56 v -30.24 h -11.328 v 30.24 h -10.56 z"
       style="font-size:96px;font-family:BebasNeue-Regular, 'Bebas Neue';-inkscape-font-specification:'BebasNeue-Regular, Bebas Neue, Normal';isolation:isolate;fill:#ffffff;stroke-width:0.0107384"
       id="path844" />
    <path
       d="m 75.986398,-2.1915314 h 14.304 L 101.2344,65.008469 H 90.674398 l -1.92,-13.344 v 0.192 h -12 l -1.92,13.152 h -9.792 z m 11.52,44.9280004 -4.704,-33.2160004 h -0.192 l -4.608,33.2160004 z"
       style="font-size:96px;font-family:BebasNeue-Regular, 'Bebas Neue';-inkscape-font-specification:'BebasNeue-Regular, Bebas Neue, Normal';isolation:isolate;fill:#ffffff;stroke-width:0.0107384"
       id="path846" />
    <path
       d="m 106.32231,-2.1915314 h 15.552 q 7.872,0 11.808,4.224 3.936,4.224 3.936,12.3840004 v 6.624 q 0,8.16 -3.936,12.384 -3.936,4.224 -11.808,4.224 h -4.992 v 27.36 h -10.56 z m 15.552,30.2400004 q 2.592,0 3.84,-1.44 1.344,-1.44 1.344,-4.896 v -7.968 q 0,-3.456 -1.344,-4.8960004 -1.248,-1.44 -3.84,-1.44 h -4.992 V 28.048469 Z"
       style="font-size:96px;font-family:BebasNeue-Regular, 'Bebas Neue';-inkscape-font-specification:'BebasNeue-Regular, Bebas Neue, Normal';isolation:isolate;fill:#ffffff;stroke-width:0.0107384"
       id="path848" />
    <path
       d="m 143.37828,-2.1915314 h 15.552 q 7.872,0 11.808,4.224 3.936,4.224 3.936,12.3840004 v 6.624 q 0,8.16 -3.936,12.384 -3.936,4.224 -11.808,4.224 h -4.992 v 27.36 h -10.56 z m 15.552,30.2400004 q 2.592,0 3.84,-1.44 1.344,-1.44 1.344,-4.896 v -7.968 q 0,-3.456 -1.344,-4.8960004 -1.248,-1.44 -3.84,-1.44 h -4.992 V 28.048469 Z"
       style="font-size:96px;font-family:BebasNeue-Regular, 'Bebas Neue';-inkscape-font-specification:'BebasNeue-Regular, Bebas Neue, Normal';isolation:isolate;fill:#ffffff;stroke-width:0.0107384"
       id="path850" />
    <path
       d="m 189.65014,36.400469 -12.768,-38.5920004 h 11.232 l 7.2,24.6720004 h 0.192 l 7.2,-24.6720004 h 10.272 l -12.768,38.5920004 v 28.608 h -10.56 z"
       style="font-size:96px;font-family:BebasNeue-Regular, 'Bebas Neue';-inkscape-font-specification:'BebasNeue-Regular, Bebas Neue, Normal';isolation:isolate;fill:#ffffff;stroke-width:0.0107384"
       id="path852" />
    <path
       d="m 233.13804,-2.1915314 h 10.56 V 25.168469 h 11.328 V -2.1915314 h 10.56 V 65.008469 h -10.56 v -30.24 h -11.328 v 30.24 h -10.56 z"
       style="font-size:96px;font-family:BebasNeue-Regular, 'Bebas Neue';-inkscape-font-specification:'BebasNeue-Regular, Bebas Neue, Normal';isolation:isolate;fill:#ffffff;stroke-width:0.0107384"
       id="path854" />
    <path
       d="m 288.72187,65.968469 q -7.776,0 -11.904,-4.416 -4.128,-4.416 -4.128,-12.48 v -35.328 q 0,-8.0640004 4.128,-12.4800004 4.128,-4.416 11.904,-4.416 7.776,0 11.904,4.416 4.128,4.416 4.128,12.4800004 v 35.328 q 0,8.064 -4.128,12.48 -4.128,4.416 -11.904,4.416 z m 0,-9.6 q 5.472,0 5.472,-6.624 v -36.672 q 0,-6.6240004 -5.472,-6.6240004 -5.472,0 -5.472,6.6240004 v 36.672 q 0,6.624 5.472,6.624 z"
       style="font-size:96px;font-family:BebasNeue-Regular, 'Bebas Neue';-inkscape-font-specification:'BebasNeue-Regular, Bebas Neue, Normal';isolation:isolate;fill:#ffffff;stroke-width:0.0107384"
       id="path856" />
    <path
       d="m 325.58583,65.968469 q -7.68,0 -11.616,-4.32 -3.936,-4.416 -3.936,-12.576 v -3.84 h 9.984 v 4.608 q 0,6.528 5.472,6.528 2.688,0 4.032,-1.536 1.44,-1.632 1.44,-5.184 0,-4.224 -1.92,-7.392 -1.92,-3.264 -7.104,-7.776 -6.528,-5.76 -9.12,-10.368 -2.592,-4.704 -2.592,-10.56 0,-7.9680004 4.032,-12.2880004 4.032,-4.416 11.712,-4.416 7.584,0 11.424,4.416 3.936,4.32 3.936,12.4800004 v 2.784 h -9.984 v -3.456 q 0,-3.4560004 -1.344,-4.9920004 -1.344,-1.632 -3.936,-1.632 -5.28,0 -5.28,6.4320004 0,3.648 1.92,6.816 2.016,3.168 7.2,7.68 6.624,5.76 9.12,10.464 2.496,4.704 2.496,11.04 0,8.256 -4.128,12.672 -4.032,4.416 -11.808,4.416 z"
       style="font-size:96px;font-family:BebasNeue-Regular, 'Bebas Neue';-inkscape-font-specification:'BebasNeue-Regular, Bebas Neue, Normal';isolation:isolate;fill:#ffffff;stroke-width:0.0107384"
       id="path858" />
    <path
       d="m 355.82581,7.4084686 h -11.04 v -9.6 h 32.64 v 9.6 h -11.04 V 65.008469 h -10.56 z"
       style="font-size:96px;font-family:BebasNeue-Regular, 'Bebas Neue';-inkscape-font-specification:'BebasNeue-Regular, Bebas Neue, Normal';isolation:isolate;fill:#ffffff;stroke-width:0.0107384"
       id="path860" />
    <path
       d="m 396.24165,65.968469 q -7.68,0 -11.616,-4.32 -3.936,-4.416 -3.936,-12.576 v -3.84 h 9.984 v 4.608 q 0,6.528 5.472,6.528 2.688,0 4.032,-1.536 1.44,-1.632 1.44,-5.184 0,-4.224 -1.92,-7.392 -1.92,-3.264 -7.104,-7.776 -6.528,-5.76 -9.12,-10.368 -2.592,-4.704 -2.592,-10.56 0,-7.9680004 4.032,-12.2880004 4.032,-4.416 11.712,-4.416 7.584,0 11.424,4.416 3.936,4.32 3.936,12.4800004 v 2.784 h -9.984 v -3.456 q 0,-3.4560004 -1.344,-4.9920004 -1.344,-1.632 -3.936,-1.632 -5.28,0 -5.28,6.4320004 0,3.648 1.92,6.816 2.016,3.168 7.2,7.68 6.624,5.76 9.12,10.464 2.496,4.704 2.496,11.04 0,8.256 -4.128,12.672 -4.032,4.416 -11.808,4.416 z"
       style="font-size:96px;font-family:BebasNeue-Regular, 'Bebas Neue';-inkscape-font-specification:'BebasNeue-Regular, Bebas Neue, Normal';isolation:isolate;fill:#ffffff;stroke-width:0.0107384"
       id="path862" />
  </g>
</svg>
